<?xml version="1.0" encoding="UTF-8" standalone="no"?>
<!-- Created with Inkscape (http://www.inkscape.org/) -->

<svg
   version="1.1"
   id="svg1"
   width="379.35999"
   height="225.39999"
   viewBox="0 0 379.35999 225.39999"
   sodipodi:docname="logo-cmyk.pdf"
   xmlns:inkscape="http://www.inkscape.org/namespaces/inkscape"
   xmlns:sodipodi="http://sodipodi.sourceforge.net/DTD/sodipodi-0.dtd"
   xmlns="http://www.w3.org/2000/svg"
   xmlns:svg="http://www.w3.org/2000/svg">
  <defs
     id="defs1" />
  <sodipodi:namedview
     id="namedview1"
     pagecolor="#ffffff"
     bordercolor="#000000"
     borderopacity="0.25"
     inkscape:showpageshadow="2"
     inkscape:pageopacity="0.0"
     inkscape:pagecheckerboard="0"
     inkscape:deskcolor="#d1d1d1">
    <inkscape:page
       x="0"
       y="0"
       inkscape:label="1"
       id="page1"
       width="379.35999"
       height="225.39999"
       margin="0"
       bleed="0" />
  </sodipodi:namedview>
  <g
     id="g1"
     inkscape:groupmode="layer"
     inkscape:label="1">
    <g
       id="group-R5">
      <path
         id="path2"
         d="m 2170.38,728.66 v 173.418 h 1.34 l 45.24,-173.418 z m -120.02,-97.769 c 0,-17.93 -13.15,-21.782 -24.14,-21.782 h -6.12 v 69.672 h 6.12 c 10.99,0 24.14,-3.992 24.14,-22 z m -60.77,97.769 3.81,53.809 h 29.32 l 3.91,-53.809 z m 17,256.289 h 0.9 l 13.98,-147.226 h -28.07 z m -318.6,-458.711 13.21,147.223 h 0.91 l 13.95,-147.223 z m -15.7,202.422 h -29.34 l -31.46,-249.711 h -59.26 v 68.789 h 52.13 v 60.434 h -52.13 v 57.34 h 55.63 v 61.742 h 29.8 l 33.79,232.285 h 0.84 z m -120.06,230.879 h 0.88 l 33.52,-230.879 h -34.4 z M 1403.76,793.797 c 0,-10.84 -3.1,-20.567 -15.37,-20.567 -12.17,0 -15.36,9.727 -15.36,20.567 v 179.629 c 0,11.035 3.19,20.644 15.36,20.644 12.27,0 15.37,-9.609 15.37,-20.644 z m -20.63,-178.578 h -30.69 v 109.515 c 8.95,-2.207 19.1,-3.535 30.69,-3.808 z m -30.69,554.481 h 30.69 v -123.27 c -11.59,-0.29 -21.74,-1.6 -30.69,-3.8 z m -59.96,-219.419 v 8.301 c 0,47.968 -23.46,78.948 -68.32,86.468 v 243.36 h 47.76 v -249.65 h 67.94 c -38.64,-15.47 -47.33,-51.389 -47.38,-88.479 z M 1243.1,728.66 c 31.45,13.184 49.38,42.149 49.38,81.875 v 6.582 c 0.05,-37.207 8.74,-73.027 47.38,-88.457 z m -31.21,133.535 v -63.496 c 0,-13.535 0,-25.469 -14.46,-25.469 -9.23,0 -12.31,9.727 -12.31,20.567 v 179.629 c 0,11.035 3.08,20.644 12.31,20.644 14.46,0 14.46,-10.957 14.46,-21.425 v -58.301 h 80.59 v -52.149 z m 614.52,125.352 h 14.1 c 13.97,0 19.2,-6.68 19.2,-18.867 v -42.578 c 0,-12.168 -5.23,-18.75 -19.2,-18.75 h -14.1 z m 570.94,52.503 -19.67,-123.948 h -0.98 l -23.18,123.948 H 2217.31 V 884.637 h -0.88 l -46.05,155.413 H 2102 V 765.691 l -37.6,274.359 h -116.09 l -39.28,-311.39 h -82.62 v 126.133 h 35.06 c 50,0 66.62,30.234 66.62,75.352 v 38.535 c 0,48.61 -27.58,71.37 -73.96,71.37 H 1748.48 V 728.66 h -7.85 v 311.39 h -108.65 l -18.79,-182.659 h -0.9 l -20.94,181.369 h 20.94 v 63.06 h -60.06 v 68.79 h 52.13 v 60.47 h -52.13 v 57.33 h 55.63 v 63.12 h -136.18 v -312.77 h 12.15 v -75.783 c -1.87,32.402 -12.58,62.093 -46.95,75.783 h 26.86 v 312.77 h -80.61 v -113.42 h -30.69 v 113.42 h -256.68 v -63.12 h 47.76 v -249.65 h 11.11 c -38.85,-15.47 -50.14,-51.604 -50.14,-88.908 V 817.508 c 0,-37.266 8.54,-73.399 47.46,-88.848 h -56.19 v -63.148 h 47.76 V 415.891 h 80.64 v 249.621 h 47.76 V 415.891 h 80.52 V 546.82 h 30.69 V 415.891 h 80.61 V 728.66 h -26.86 c 34.37,13.692 45.08,43.32 46.95,75.645 V 728.66 h -12.15 V 415.891 h 212.35 l 3.96,55.168 h 29.38 l 3.94,-55.168 h 80.57 l -34.22,249.621 h 47.42 V 415.891 h 80.63 v 249.621 h 46.48 V 415.891 h 77.91 v 144.55 c 3.07,0.86 5.32,1.34 9.2,1.34 16.74,0 21.06,-12.301 21.06,-27.261 V 415.891 h 75.29 v 109.468 c 0,35.082 -14.36,53.493 -50.39,55.602 v 0.98 c 34.24,2.11 47.38,21 47.38,55.141 v 27.977 c 0,45.671 -22.69,58.582 -56.01,62.195 h 66.95 V 415.891 h 140.66 v 63.058 h -60.04 v 68.789 h 52.21 v 60.434 h -52.21 v 57.34 h 55.57 v 61.742 h 15.86 v 287.286 l 50.82,-173.341 V 727.254 h 77.95 v 113.945 l 58.3,198.851 h -75.35"
         style="fill:#ffffff;fill-opacity:1;fill-rule:nonzero;stroke:none"
         transform="matrix(0.13333333,0,0,-0.13333333,0,225.4)" />
      <path
         id="path3"
         d="m 964.102,968.152 c -68.457,-16.132 -184.559,-56.23 -184.559,-56.23 -7.668,-3.555 -10.09,-4.981 -14.797,-5.156 -0.851,-0.02 -26.582,4.179 -34.238,6.132 0,0 -9.09,4.043 5.027,3.731 9.184,-0.156 29.699,0.176 47.668,6.836 34.473,10.625 120.508,34.238 167.715,47.851 11.523,4.122 42.676,6.27 13.184,-3.164 z m 32.402,314.938 c -0.242,1.76 -0.547,3.48 -0.899,5.14 -0.429,1.97 -0.937,3.83 -1.523,5.57 -0.547,1.75 -1.172,3.47 -1.894,5.08 -0.645,1.42 -1.426,2.65 -2.188,3.9 -0.957,1.56 -1.887,3.17 -3.086,4.55 -0.351,0.43 -0.809,0.71 -1.191,1.12 -4.114,4.37 -9.258,7.94 -16.328,10.01 -9.063,2.7 -23.274,5.12 -40.372,7.29 -1.003,0.18 -1.699,0.29 -1.699,0.29 0.403,-0.06 0.672,-0.15 1.055,-0.21 -63.445,7.97 -168.086,11.91 -216.934,8.28 -46.816,-3.38 -55.937,-28.34 -61.933,-80.23 -21.387,-184.65 -61.895,-357.407 -61.895,-357.407 82.832,-5.821 197.102,-38.184 197.102,-38.184 l 0.691,23.477 c 5.52,1.523 11.641,3.3 18.399,5.332 2.363,-46.504 4.738,-159.375 -19.09,-267.739 -13.059,-59.41 -22.942,-95.8 -31.25,-122.687 -1.653,-5.41 -4.985,-13.281 -8.098,-21.063 L 684.68,436.281 c -5.325,-3.679 -3.782,-7.761 -1.575,-8.871 l 36.172,-11.449 c 7.95,-1.75 7.95,-1.75 14.793,1.801 l 196.391,140.699 c 3.934,3.027 3.875,7.019 -0.754,8.578 l -24.746,4.723 c -0.332,0 -0.559,0.019 -0.879,0.039 1.719,32.48 6.484,102.347 18.008,167.582 17.59,99.844 34.687,171.582 42.461,202.441 9.804,3.574 17.734,6.524 22.402,8.321 2.949,1.093 6.426,20.058 5.637,25.722 -0.024,0.059 -0.024,0.117 -0.024,0.156 -0.164,0.997 -0.418,1.661 -0.886,1.563 -9.121,3.398 -22.918,5.977 -34.004,6.738 2.832,15.876 20.215,115.156 36.504,244.276 0.761,6.08 1.445,11.95 2.011,17.74 0.039,0.37 0.11,0.84 0.137,1.21 0.227,1.97 0.242,3.57 0.41,5.45 0.196,2.48 0.41,5 0.52,7.38 0.203,3.77 0.222,7.25 0.144,10.57 -0.019,1.36 -0.058,2.73 -0.129,4.06 -0.164,2.87 -0.418,5.56 -0.769,8.08 z m -410.469,-632.129 -16.816,3.75 c -4.59,1.019 -9.446,1.488 -14.883,0.711 -0.281,5 -0.586,10.949 -0.879,17.75 69.531,-16.891 134.297,-30.684 146.309,-32.192 8.183,-1.031 17.519,0.321 26.757,2.801 6.68,0.801 33.133,4.797 45.879,19.02 3.828,4.238 6.953,26.48 9.278,50.429 2.207,18.243 4.011,39.493 4.746,58.77 1.933,54.375 -1.707,71.172 -1.707,71.172 -60.012,22.851 -166.418,42.012 -199.016,42.676 l 0.039,-2.227 C 542.91,883.074 363.563,830.633 352.195,820.828 l -1.59,1.426 c -9.296,-13.047 -3.515,-67.754 13.848,-89.551 3.367,-4.258 15.559,-9.863 33.281,-16.172 -3.371,-33.242 -11.464,-86.48 -30.8,-134.59 -0.586,-1.429 -1.192,-3.031 -1.758,-4.73 L 316.699,556.84 c -5.027,-2.578 -4.726,-6.418 -2.383,-7.828 l 30.657,-10.434 c 3.757,-0.699 7.019,-0.777 13.582,1.391 L 585.039,643.09 c 4.629,2.48 4.199,6.699 0.996,7.871 z M 387.871,984.285 c 49.317,8.516 196.438,47.265 200.945,38.925 0.129,-1.11 -8.726,-3.92 -22.871,-7.71 -57.781,-13.4 -172.234,-39.984 -186.504,-44.047 -0.027,-0.019 -0.046,-0.039 -0.086,-0.058 -1.484,-0.352 -2.863,-0.684 -4.003,-0.977 -7.082,-1.699 -35.235,3.516 -40.235,7.617 -0.527,1.953 23.125,1.094 52.754,6.25 z m -14.941,-43.027 10.215,2.617 c 1.894,0.391 3.996,0.84 6.132,1.309 3.496,-18.047 9.746,-55.469 10.071,-91.485 52.422,16.524 126.875,35.254 166.023,41.68 3.223,27.812 7.82,65.43 12.598,97.93 4.277,1.269 7.773,2.382 10.832,3.398 l 4.031,1.035 c 0,0 0.117,0.293 0.156,0.391 0.254,0.097 0.625,0.215 0.86,0.293 3.457,1.308 7.168,23.714 5.234,24.744 0,0 -0.066,-0.02 -0.09,-0.02 -0.086,1.49 -0.32,2.76 -0.996,3.42 -4.558,3.73 -37.73,8.87 -48.926,8.79 -23.523,-0.2 -209.617,-41.68 -224.871,-49.864 -10.859,-5.801 -3.347,-30.137 -3.347,-30.137 8.347,-10.039 53.394,-15.703 52.078,-14.101"
         style="fill:#ed0e58;fill-opacity:1;fill-rule:nonzero;stroke:none"
         transform="matrix(0.13333333,0,0,-0.13333333,0,225.4)" />
    </g>
  </g>
</svg>
