<?xml version="1.0" encoding="UTF-8" standalone="no"?>
<!-- Created with Inkscape (http://www.inkscape.org/) -->

<svg
   version="1.1"
   id="svg1"
   width="363.96799"
   height="105.11973"
   viewBox="0 0 363.96799 105.11973"
   sodipodi:docname="mirvish-logo-red.pdf"
   xmlns:inkscape="http://www.inkscape.org/namespaces/inkscape"
   xmlns:sodipodi="http://sodipodi.sourceforge.net/DTD/sodipodi-0.dtd"
   xmlns="http://www.w3.org/2000/svg"
   xmlns:svg="http://www.w3.org/2000/svg">
  <defs
     id="defs1" />
  <sodipodi:namedview
     id="namedview1"
     pagecolor="#ffffff"
     bordercolor="#000000"
     borderopacity="0.25"
     inkscape:showpageshadow="2"
     inkscape:pageopacity="0.0"
     inkscape:pagecheckerboard="0"
     inkscape:deskcolor="#d1d1d1">
    <inkscape:page
       x="0"
       y="0"
       inkscape:label="1"
       id="page1"
       width="363.96799"
       height="105.11973"
       margin="0"
       bleed="0" />
  </sodipodi:namedview>
  <g
     id="layer-MC0"
     inkscape:groupmode="layer"
     inkscape:label="red">
    <path
       id="path1"
       d="m 0,0 v 21.843 c 0,2.628 -0.559,4.613 -1.679,5.954 -1.121,1.339 -2.728,2.009 -4.82,2.009 -2.095,0 -3.738,-0.67 -4.933,-2.009 -1.192,-1.341 -1.789,-3.326 -1.789,-5.954 V 0 h -11.103 v 21.843 c 0,2.628 -0.561,4.613 -1.681,5.954 -1.121,1.339 -2.727,2.009 -4.82,2.009 -2.095,0 -3.738,-0.67 -4.931,-2.009 -1.194,-1.341 -1.79,-3.326 -1.79,-5.954 V 0 H -48.65 v 39.156 h 11.104 v -5.552 c 0.632,0.829 1.326,1.62 2.081,2.375 0.756,0.753 1.597,1.424 2.521,2.007 0.924,0.586 1.961,1.046 3.104,1.389 1.144,0.34 2.423,0.51 3.835,0.51 2.581,0 4.809,-0.534 6.683,-1.607 1.875,-1.069 3.325,-2.605 4.348,-4.6 1.704,2.045 3.603,3.591 5.697,4.638 2.093,1.045 4.481,1.569 7.158,1.569 4.139,0 7.379,-1.217 9.716,-3.652 0.464,-0.483 0.932,-1.025 1.392,-1.596 -5.074,15.907 -19.968,27.43 -37.557,27.43 -21.771,0 -39.421,-17.648 -39.421,-39.42 0,-21.768 17.65,-39.419 39.421,-39.419 13.339,0 25.122,6.633 32.254,16.772 z"
       style="fill:#82171b;fill-opacity:1;fill-rule:nonzero;stroke:none"
       transform="matrix(1.3333333,0,0,-1.3333333,90.6524,82.756533)" />
    <path
       id="path2"
       d="M 83.5,55.929 H 94.604 V 16.773 H 83.5 Z M 83.209,71.765 H 94.897 V 61.903 H 83.209 Z"
       style="fill:#82171b;fill-opacity:1;fill-rule:nonzero;stroke:none"
       transform="matrix(1.3333333,0,0,-1.3333333,0,105.11973)" />
    <path
       id="path3"
       d="m 0,0 h 11.103 v -7.892 c 1.121,2.73 2.667,4.883 4.638,6.465 1.973,1.583 4.59,2.303 7.854,2.156 v -11.616 h -0.584 c -3.702,0 -6.611,-1.118 -8.728,-3.357 -2.12,-2.242 -3.18,-5.725 -3.18,-10.448 V -39.156 H 0 Z"
       style="fill:#82171b;fill-opacity:1;fill-rule:nonzero;stroke:none"
       transform="matrix(1.3333333,0,0,-1.3333333,137.6536,30.548133)" />
    <path
       id="path4"
       d="M 0,0 H 11.761 L 20.526,-26.225 29.366,0 H 40.907 L 25.494,-39.446 H 15.412 Z"
       style="fill:#82171b;fill-opacity:1;fill-rule:nonzero;stroke:none"
       transform="matrix(1.3333333,0,0,-1.3333333,176.79107,30.548133)" />
    <path
       id="path5"
       d="m 179.665,55.929 h 11.102 V 16.773 h -11.102 z m -0.294,15.836 h 11.688 v -9.862 h -11.688 z"
       style="fill:#82171b;fill-opacity:1;fill-rule:nonzero;stroke:none"
       transform="matrix(1.3333333,0,0,-1.3333333,0,105.11973)" />
    <path
       id="path6"
       d="m 0,0 c -2.775,0 -5.613,0.475 -8.509,1.427 -2.899,0.948 -5.663,2.445 -8.293,4.492 l 4.75,7.304 c 2.141,-1.56 4.272,-2.728 6.392,-3.507 2.118,-0.778 4.101,-1.17 5.952,-1.17 1.607,0 2.787,0.267 3.542,0.805 0.755,0.535 1.132,1.243 1.132,2.118 v 0.146 c 0,0.584 -0.217,1.097 -0.657,1.533 -0.437,0.44 -1.036,0.817 -1.792,1.134 -0.751,0.316 -1.616,0.62 -2.592,0.911 -0.973,0.292 -1.994,0.611 -3.066,0.952 -1.365,0.39 -2.74,0.864 -4.127,1.423 -1.388,0.558 -2.643,1.29 -3.763,2.193 -1.119,0.901 -2.033,2.008 -2.74,3.324 -0.707,1.314 -1.059,2.92 -1.059,4.818 v 0.149 c 0,1.995 0.377,3.76 1.133,5.296 0.755,1.532 1.778,2.834 3.068,3.908 1.289,1.067 2.813,1.872 4.567,2.411 1.75,0.534 3.601,0.802 5.55,0.802 2.483,0 5.003,-0.403 7.56,-1.205 2.558,-0.805 4.907,-1.912 7.05,-3.324 L 9.86,28.27 c -1.947,1.121 -3.844,2.009 -5.698,2.668 -1.851,0.655 -3.482,0.985 -4.892,0.985 -1.366,0 -2.389,-0.255 -3.069,-0.768 -0.683,-0.512 -1.022,-1.158 -1.022,-1.934 v -0.149 c 0,-0.532 0.219,-1.011 0.657,-1.422 0.437,-0.415 1.023,-0.804 1.752,-1.169 0.733,-0.365 1.572,-0.707 2.523,-1.025 0.948,-0.315 1.958,-0.667 3.03,-1.057 1.362,-0.439 2.751,-0.964 4.162,-1.569 1.414,-0.613 2.679,-1.353 3.801,-2.228 1.118,-0.876 2.045,-1.95 2.775,-3.216 0.731,-1.267 1.096,-2.8 1.096,-4.6 v -0.147 c 0,-2.193 -0.377,-4.08 -1.133,-5.662 C 13.085,5.394 12.028,4.091 10.665,3.069 9.302,2.044 7.719,1.279 5.917,0.768 4.114,0.257 2.142,0 0,0"
       style="fill:#82171b;fill-opacity:1;fill-rule:nonzero;stroke:none"
       transform="matrix(1.3333333,0,0,-1.3333333,285.9056,83.729067)" />
    <path
       id="path7"
       d="m 0,0 h 11.104 v -21.2 c 0.633,0.828 1.328,1.619 2.082,2.375 0.755,0.753 1.596,1.423 2.522,2.008 0.924,0.585 1.947,1.046 3.068,1.387 1.119,0.34 2.385,0.511 3.8,0.511 4.235,0 7.509,-1.291 9.823,-3.87 2.312,-2.582 3.471,-6.138 3.471,-10.666 v -25.35 H 24.765 v 21.843 c 0,2.631 -0.584,4.613 -1.751,5.954 -1.17,1.339 -2.827,2.009 -4.968,2.009 -2.144,0 -3.837,-0.67 -5.079,-2.009 -1.24,-1.341 -1.863,-3.323 -1.863,-5.954 v -21.843 l -11.104,0 z"
       style="fill:#82171b;fill-opacity:1;fill-rule:nonzero;stroke:none"
       transform="matrix(1.3333333,0,0,-1.3333333,316.14067,9.6836)" />
  </g>
</svg>
